<?xml version="1.0" encoding="UTF-8"?>
<svg id="_图层_1" data-name="图层 1" xmlns="http://www.w3.org/2000/svg" xmlns:xlink="http://www.w3.org/1999/xlink" viewBox="0 0 304.89 322.67">
  <defs>
    <style>
      .cls-1 {
        fill: #6b8ca9;
      }

      .cls-2 {
        fill: #fff;
      }

      .cls-3 {
        fill: none;
      }

      .cls-4 {
        fill: url(#_未命名的渐变_3);
      }

      .cls-5 {
        clip-path: url(#clippath);
      }

      .cls-6 {
        fill: #0f355a;
      }
    </style>
    <linearGradient id="_未命名的渐变_3" data-name="未命名的渐变 3" x1="294.57" y1="261.32" x2="93.68" y2="71.09" gradientUnits="userSpaceOnUse">
      <stop offset=".34" stop-color="#1c9577"/>
      <stop offset=".5" stop-color="#16589b"/>
      <stop offset=".69" stop-color="#0d375e"/>
    </linearGradient>
    <clipPath id="clippath">
      <path class="cls-3" d="M22.5,55.05s63.88-8.14,131.82-40.72c0,0,53.91,26.28,132.18,40.35,0,0,26.77,194.85-131.82,247.65,0,0-149.35-32.86-132.18-247.28Z"/>
    </clipPath>
  </defs>
  <path class="cls-4" d="M22.5,55.05s63.88-8.14,131.82-40.72c0,0,53.91,26.28,132.18,40.35,0,0,26.77,194.85-131.82,247.65,0,0-149.35-32.86-132.18-247.28Z"/>
  <path class="cls-3" d="M22.5,55.05s63.88-8.14,131.82-40.72c0,0,53.91,26.28,132.18,40.35,0,0,26.77,194.85-131.82,247.65,0,0-149.35-32.86-132.18-247.28Z"/>
  <path class="cls-3" d="M22.5,55.05s63.88-8.14,131.82-40.72c0,0,53.91,26.28,132.18,40.35,0,0,26.77,194.85-131.82,247.65,0,0-149.35-32.86-132.18-247.28Z"/>
  <g class="cls-5">
    <g>
      <path class="cls-6" d="M213.76,20.42s-14.95,46.52-21.05,54.28c-6.09,7.75-50.4,102.46-171.69,134.58-121.29,32.12,1.11-187.2,1.11-187.2L148.41-1.73l65.35,22.15Z"/>
      <g>
        <g>
          <polygon class="cls-1" points="22.13 145.22 58.96 111.53 66.72 105.44 99.67 117.35 135.67 66.67 142.87 60.3 177.21 94.09 170.84 100.73 143.42 71.93 102.99 128.06 68.38 117.07 24.62 158.06 22.13 145.22"/>
          <g>
            <ellipse class="cls-2" cx="65.88" cy="112.27" rx="11.91" ry="11.72"/>
            <circle class="cls-2" cx="99.44" cy="120.55" r="11.85"/>
            <circle class="cls-2" cx="141.96" cy="68.85" r="11.85"/>
          </g>
        </g>
        <path class="cls-2" d="M254.51,103c-9.27,0-16.78,7.41-16.78,16.56,0,1.84.32,3.61.88,5.26-41.49,28.38-92.61,23.17-92.61,23.17C211.36,80.06,216.9,29.47,216.9,29.47l-12.92-4.06s-6.25,27.22-21.78,54.28C123.48,181.96,29.33,196.73,29.33,196.73l4.8,12.92c59.82-12.92,96.74-48.37,96.74-48.37,71.73,3.69,104.04-17.44,115.19-27.45,2.49,1.44,5.37,2.27,8.46,2.27,9.27,0,16.78-7.41,16.78-16.56s-7.51-16.56-16.78-16.56ZM254.51,127.89c-4.66,0-8.45-3.73-8.45-8.33s3.78-8.33,8.45-8.33,8.45,3.73,8.45,8.33-3.78,8.33-8.45,8.33Z"/>
        <path class="cls-2" d="M240.07,161.22c-8.51,0-15.4,5.89-16.29,15-7.85,1.53-23.78,5.17-39.33,9.11-16.67,4.23-32.38,7.18-47.3,21.74-26.92,26.26-18.37,86.4-18.37,86.4l9.14,3.88c-1.69-48.9.55-69.51,22.98-88.34,11.03-9.26,31.59-13.97,48.74-17.45,10.99-2.23,20.58-3.93,26.29-4.9,2.98,4.6,8.19,7.67,14.14,7.67,9.27,0,16.78-7.41,16.78-16.56s-7.51-16.56-16.78-16.56ZM240.07,186.11c-4.66,0-8.45-3.73-8.45-8.33s3.78-8.33,8.45-8.33,8.45,3.73,8.45,8.33-3.78,8.33-8.45,8.33Z"/>
        <path class="cls-2" d="M208.84,209.33c-7.59,0-14,4.98-16.07,11.81-5.18-1.04-20.2.3-31.22,9.97s-13.15,20.08-13.52,30.24c-.49,13.59.37,43.75.37,43.75l10.15.74s-.37-17.35-.37-34.89c0-7.84.03-15.27,2.58-21.97,5.11-13.38,21.45-19.87,32.24-17.65,2.28,6.47,8.5,11.12,15.83,11.12,9.27,0,16.78-7.41,16.78-16.56s-7.51-16.56-16.78-16.56ZM208.84,234.22c-4.66,0-8.45-3.73-8.45-8.33s3.78-8.33,8.45-8.33,8.45,3.73,8.45,8.33-3.78,8.33-8.45,8.33Z"/>
      </g>
    </g>
  </g>
</svg>